<?xml version="1.0" encoding="UTF-8"?> <svg xmlns="http://www.w3.org/2000/svg" width="357" height="60" viewBox="0 0 357 60" fill="none"> <path d="M26.672 0.383998C27.568 0.383998 28.336 0.703998 28.976 1.344C29.648 1.952 29.984 2.784 29.984 3.84C29.984 4.48 29.872 5.136 29.648 5.808L18.32 38.352C17.904 39.536 17.312 40.448 16.544 41.088C15.776 41.696 14.944 42 14.048 42C13.152 42 12.368 41.696 11.696 41.088C11.056 40.448 10.736 39.6 10.736 38.544C10.736 37.904 10.848 37.248 11.072 36.576L14.864 25.728C13.264 26.56 11.648 26.976 10.016 26.976C7.136 26.976 4.816 26.24 3.056 24.768C1.328 23.264 0.464 21.312 0.464 18.912C0.464 17.76 0.672 16.608 1.088 15.456L5.168 3.984C6.064 1.552 7.488 0.335999 9.44 0.335999C10.336 0.335999 11.104 0.655998 11.744 1.296C12.416 1.904 12.752 2.736 12.752 3.792C12.752 4.432 12.64 5.088 12.416 5.76L8.624 16.56C8.432 17.136 8.336 17.664 8.336 18.144C8.336 19.872 9.504 20.736 11.84 20.736C13.152 20.736 14.464 20.112 15.776 18.864C17.088 17.616 18.112 16.112 18.848 14.352L22.448 4.032C22.864 2.848 23.456 1.952 24.224 1.344C24.992 0.703998 25.808 0.383998 26.672 0.383998ZM52.6603 28.08C53.1083 26.608 54.1163 25.872 55.6843 25.872C56.4843 25.872 57.1723 26.096 57.7483 26.544C58.3243 26.992 58.6123 27.584 58.6123 28.32C58.6123 28.608 58.5643 28.896 58.4683 29.184C56.9003 33.792 54.9483 37.088 52.6123 39.072C50.3083 41.024 47.8603 42 45.2683 42C42.1963 42 39.9083 40.896 38.4043 38.688C36.3563 40.896 34.0843 42 31.5883 42C29.5403 42 27.8283 41.392 26.4523 40.176C25.0762 38.96 24.3882 37.392 24.3882 35.472C24.3882 34.64 24.5322 33.792 24.8202 32.928L30.4363 16.56C31.0763 14.736 32.2283 13.824 33.8923 13.824C34.8203 13.824 35.6363 14.144 36.3403 14.784C37.0443 15.392 37.3963 16.176 37.3963 17.136C37.3963 17.584 37.3003 18.08 37.1083 18.624L31.8763 33.6C31.7163 34.144 31.6363 34.64 31.6363 35.088C31.6363 35.888 32.0043 36.288 32.7403 36.288C33.6683 36.288 34.6123 35.824 35.5723 34.896C36.5323 33.968 37.3643 32.8 38.0683 31.392L43.3483 16.656C44.0203 14.768 45.2043 13.824 46.9003 13.824C47.7963 13.824 48.5803 14.128 49.2523 14.736C49.9563 15.344 50.3083 16.112 50.3083 17.04C50.3083 17.552 50.2283 18 50.0683 18.384L44.3563 34.416C44.2603 34.672 44.2123 34.912 44.2123 35.136C44.2123 35.488 44.3403 35.776 44.5963 36C44.8843 36.192 45.2363 36.288 45.6523 36.288C46.8363 36.288 48.0363 35.616 49.2523 34.272C50.5003 32.896 51.6363 30.832 52.6603 28.08ZM74.2633 27.744C74.7113 26.432 75.6713 25.776 77.1433 25.776C77.9433 25.776 78.6313 26.016 79.2073 26.496C79.8153 26.944 80.1193 27.536 80.1193 28.272C80.1193 28.624 80.0553 28.944 79.9273 29.232C78.4553 33.424 76.1513 36.608 73.0153 38.784C69.9113 40.928 66.4873 42 62.7433 42C59.2233 42 56.3593 41.12 54.1513 39.36C51.9753 37.568 50.8872 35.28 50.8872 32.496C50.8872 31.408 51.0793 30.288 51.4633 29.136L54.1992 21.072C55.0313 18.672 56.3273 16.864 58.0872 15.648C59.8473 14.432 61.7513 13.824 63.7993 13.824C65.9753 13.824 67.8313 14.464 69.3673 15.744C70.9033 17.024 71.6713 18.752 71.6713 20.928C71.6713 22.08 71.4473 23.264 70.9993 24.48C70.1993 26.528 68.9513 27.552 67.2553 27.552C66.3913 27.552 65.6233 27.264 64.9513 26.688C64.3113 26.112 63.9913 25.408 63.9913 24.576C63.9913 24.128 64.1193 23.648 64.3753 23.136C64.7273 22.432 64.9033 21.84 64.9033 21.36C64.9033 20.432 64.4233 19.968 63.4633 19.968C63.0793 19.968 62.6793 20.144 62.2633 20.496C61.8473 20.848 61.5273 21.296 61.3033 21.84L58.3753 30.144C58.1833 30.752 58.0872 31.328 58.0872 31.872C58.0872 33.12 58.5833 34.16 59.5753 34.992C60.5673 35.824 61.8793 36.24 63.5113 36.24C65.5593 36.24 67.5753 35.552 69.5593 34.176C71.5433 32.768 73.1113 30.624 74.2633 27.744ZM115.028 25.92C115.796 25.92 116.452 26.144 116.996 26.592C117.572 27.008 117.86 27.584 117.86 28.32C117.86 28.544 117.796 28.88 117.668 29.328C116.132 33.808 114.18 37.04 111.812 39.024C109.476 41.008 106.98 42 104.324 42C102.116 42 100.26 41.392 98.756 40.176C97.252 38.96 96.5 37.296 96.5 35.184C96.5 34.16 96.692 33.088 97.076 31.968L100.724 22.032C100.852 21.648 100.916 21.296 100.916 20.976C100.916 20.528 100.772 20.176 100.484 19.92C100.196 19.632 99.828 19.488 99.38 19.488C98.58 19.488 97.764 19.84 96.932 20.544C96.132 21.248 95.524 22.192 95.108 23.376L89.588 38.976C89.236 39.968 88.692 40.72 87.956 41.232C87.22 41.744 86.42 42 85.556 42C84.692 42 83.956 41.744 83.348 41.232C82.772 40.72 82.484 40.032 82.484 39.168C82.484 38.656 82.612 38.064 82.868 37.392L88.484 21.792C88.612 21.504 88.676 21.2 88.676 20.88C88.676 20.464 88.516 20.128 88.196 19.872C87.908 19.616 87.524 19.488 87.044 19.488C85.444 19.488 84.116 20.56 83.06 22.704L77.348 39.12C77.028 40.048 76.5 40.768 75.764 41.28C75.06 41.76 74.276 42 73.412 42C72.516 42 71.764 41.76 71.156 41.28C70.516 40.768 70.196 40.08 70.196 39.216C70.196 38.832 70.26 38.448 70.388 38.064L78.068 15.936C78.356 15.264 78.836 14.752 79.508 14.4C80.18 14.016 80.9 13.824 81.668 13.824C82.884 13.824 83.764 14.192 84.308 14.928C85.524 14.192 86.852 13.824 88.292 13.824C90.596 13.824 92.388 14.56 93.668 16.032C95.492 14.56 97.636 13.824 100.1 13.824C102.34 13.824 104.228 14.432 105.764 15.648C107.3 16.864 108.068 18.464 108.068 20.448C108.068 21.216 107.908 22.112 107.588 23.136L103.508 34.32C103.444 34.448 103.412 34.672 103.412 34.992C103.412 35.856 103.892 36.288 104.852 36.288C106.068 36.288 107.284 35.632 108.5 34.32C109.748 32.976 110.868 30.928 111.86 28.176C112.084 27.44 112.484 26.88 113.06 26.496C113.668 26.112 114.324 25.92 115.028 25.92ZM150.554 24.432C151.29 24.432 151.914 24.688 152.426 25.2C152.97 25.68 153.242 26.352 153.242 27.216C153.242 27.6 153.162 28.08 153.002 28.656C152.17 31.28 150.682 33.456 148.538 35.184C146.426 36.88 143.994 37.728 141.242 37.728C140.25 37.728 139.29 37.6 138.362 37.344C136.538 40.448 133.482 42 129.194 42C126.634 42 124.458 41.264 122.666 39.792C120.874 38.32 119.978 36.368 119.978 33.936C119.978 32.784 120.186 31.632 120.602 30.48L120.65 30.288H117.674L114.746 38.688C114.394 39.776 113.866 40.608 113.162 41.184C112.458 41.728 111.706 42 110.906 42C110.042 42 109.29 41.712 108.65 41.136C108.01 40.56 107.69 39.776 107.69 38.784C107.69 38.528 107.834 37.936 108.122 37.008L110.666 29.712C110.058 29.328 109.658 28.784 109.466 28.08C109.242 27.376 109.258 26.704 109.514 26.064C109.962 24.688 111.066 23.856 112.826 23.568L119.786 3.648C120.138 2.56 120.666 1.744 121.37 1.2C122.074 0.623999 122.826 0.335999 123.626 0.335999C124.49 0.335999 125.242 0.623999 125.882 1.2C126.522 1.776 126.842 2.56 126.842 3.552C126.842 3.808 126.698 4.4 126.41 5.328L120.026 23.52H123.05L124.106 20.592C124.842 18.512 126.17 16.864 128.09 15.648C130.01 14.432 132.122 13.824 134.426 13.824C137.05 13.824 139.242 14.592 141.002 16.128C142.762 17.632 143.642 19.584 143.642 21.984C143.642 22.88 143.37 24.16 142.826 25.824C142.314 27.488 141.834 28.64 141.386 29.28C141.066 29.76 140.746 30.112 140.426 30.336C140.458 30.464 140.474 30.592 140.474 30.72C140.506 30.848 140.522 30.96 140.522 31.056C140.554 31.152 140.57 31.264 140.57 31.392C140.602 31.488 140.618 31.568 140.618 31.632C140.618 31.696 140.618 31.76 140.618 31.824C140.618 31.888 140.618 31.92 140.618 31.92V31.968C140.746 32 140.97 32.016 141.29 32.016C142.666 32.016 143.882 31.568 144.938 30.672C146.026 29.744 146.842 28.512 147.386 26.976C147.898 25.28 148.954 24.432 150.554 24.432ZM136.154 24.576C136.57 23.328 136.778 22.336 136.778 21.6C136.778 21.024 136.554 20.528 136.106 20.112C135.658 19.696 135.066 19.488 134.33 19.488C133.562 19.488 132.81 19.712 132.074 20.16C131.37 20.608 130.874 21.216 130.586 21.984L127.178 31.728C126.89 32.432 126.746 33.184 126.746 33.984C126.746 35.52 127.53 36.288 129.098 36.288C130.826 36.288 131.994 35.456 132.602 33.792C131.45 32.832 130.858 31.744 130.826 30.528C130.826 29.088 131.322 27.904 132.314 26.976C133.306 26.016 134.474 25.616 135.818 25.776C135.85 25.584 135.962 25.184 136.154 24.576ZM184.607 25.872C185.375 25.872 186.031 26.08 186.575 26.496C187.151 26.912 187.439 27.488 187.439 28.224C187.439 28.544 187.359 28.912 187.199 29.328C185.631 33.744 183.663 36.96 181.295 38.976C178.959 40.992 176.447 42 173.759 42C171.615 42 169.823 41.408 168.383 40.224C166.975 39.008 166.271 37.344 166.271 35.232C166.271 34.304 166.479 33.248 166.895 32.064L170.063 22.944C170.767 20.928 170.735 19.92 169.967 19.92C169.327 19.92 168.495 20.928 167.471 22.944L160.847 36.288C159.983 38.016 158.719 39.408 157.055 40.464C155.423 41.488 153.663 42 151.775 42C148.767 42 146.815 40.8 145.919 38.4C145.055 35.968 145.343 32.768 146.783 28.8C147.359 27.232 148.415 26.448 149.951 26.448C150.719 26.448 151.375 26.656 151.919 27.072C152.495 27.488 152.783 28.064 152.783 28.8C152.783 29.12 152.703 29.488 152.543 29.904C151.999 31.376 151.631 32.608 151.439 33.6C151.279 34.56 151.279 35.248 151.439 35.664C151.599 36.08 151.903 36.288 152.351 36.288C153.023 36.288 153.615 35.76 154.127 34.704L161.423 20.64C163.791 16.096 167.039 13.824 171.167 13.824C173.087 13.824 174.639 14.448 175.823 15.696C177.039 16.912 177.647 18.576 177.647 20.688C177.647 21.616 177.519 22.448 177.263 23.184L173.519 33.84C173.295 34.448 173.183 34.88 173.183 35.136C173.183 35.488 173.295 35.776 173.519 36C173.743 36.192 174.031 36.288 174.383 36.288C175.599 36.288 176.815 35.632 178.031 34.32C179.279 32.976 180.399 30.928 181.391 28.176C181.615 27.44 182.031 26.88 182.639 26.496C183.247 26.08 183.903 25.872 184.607 25.872ZM217.903 25.92C218.671 25.92 219.343 26.144 219.919 26.592C220.495 27.04 220.783 27.616 220.783 28.32C220.783 28.608 220.735 28.896 220.639 29.184C219.039 33.92 217.295 37.248 215.407 39.168C213.519 41.056 211.327 42 208.831 42C206.655 42 204.831 41.44 203.359 40.32C201.887 39.2 201.151 37.856 201.151 36.288C201.151 34.784 201.407 33.296 201.919 31.824L203.407 27.6L204.655 24.096C204.943 23.36 205.087 22.608 205.087 21.84C205.087 20.304 204.303 19.536 202.735 19.536C201.679 19.536 200.767 19.872 199.999 20.544C199.263 21.216 198.655 22.416 198.175 24.144C197.855 25.264 197.695 25.936 197.695 26.16V26.4H198.271C200.031 26.4 201.183 27.152 201.727 28.656C202.207 29.968 202.031 31.152 201.199 32.208C200.239 33.392 198.799 33.744 196.879 33.264H196.831H196.783C196.431 33.264 196.015 33.92 195.535 35.232C194.639 37.856 193.583 39.648 192.367 40.608C191.151 41.536 189.535 42 187.519 42C184.415 42 182.287 40.8 181.135 38.4C179.983 35.968 180.095 32.768 181.471 28.8C182.047 27.232 183.103 26.448 184.639 26.448C185.407 26.448 186.063 26.656 186.607 27.072C187.183 27.488 187.471 28.064 187.471 28.8C187.471 29.12 187.391 29.488 187.231 29.904C186.687 31.344 186.367 32.56 186.271 33.552C186.175 34.544 186.239 35.248 186.463 35.664C186.719 36.08 187.071 36.288 187.519 36.288C187.679 36.288 187.807 36.272 187.903 36.24C188.031 36.176 188.143 36.096 188.239 36C188.367 35.872 188.463 35.76 188.527 35.664C188.623 35.536 188.719 35.36 188.815 35.136C188.911 34.912 188.975 34.72 189.007 34.56C189.071 34.4 189.167 34.16 189.295 33.84C189.423 33.52 189.519 33.264 189.583 33.072C190.255 31.312 191.055 29.952 191.983 28.992C191.631 28.032 191.455 27.04 191.455 26.016C191.455 24.928 191.743 23.488 192.319 21.696C192.863 20 193.519 18.608 194.287 17.52C195.087 16.4 195.983 15.6 196.975 15.12C197.967 14.608 198.879 14.272 199.711 14.112C200.575 13.92 201.551 13.824 202.639 13.824C205.199 13.824 207.375 14.56 209.167 16.032C210.959 17.504 211.855 19.456 211.855 21.888C211.855 23.04 211.647 24.192 211.231 25.344L209.887 28.992L208.255 33.888C208.159 34.176 208.111 34.432 208.111 34.656C208.111 35.744 208.559 36.288 209.455 36.288C210.383 36.288 211.199 35.728 211.903 34.608C212.639 33.456 213.583 31.28 214.735 28.08C215.279 26.64 216.335 25.92 217.903 25.92ZM264.667 1.296C265.435 1.296 266.059 1.584 266.539 2.16C267.051 2.704 267.307 3.36 267.307 4.128C267.307 4.992 266.971 5.744 266.299 6.384C265.659 6.992 264.715 7.296 263.467 7.296H252.235L241.051 39.312C240.763 40.176 240.251 40.848 239.515 41.328C238.811 41.776 238.027 42 237.163 42C236.203 42 235.355 41.728 234.619 41.184C233.915 40.608 233.563 39.84 233.563 38.88C233.563 38.4 233.643 37.952 233.803 37.536L244.315 7.296H241.723C240.891 7.296 240.219 7.024 239.707 6.48C239.195 5.904 238.939 5.232 238.939 4.464C238.939 3.6 239.259 2.864 239.899 2.256C240.571 1.616 241.547 1.296 242.827 1.296H264.667ZM262.64 33.744C262.48 34.224 262.4 34.624 262.4 34.944C262.4 35.872 262.864 36.336 263.792 36.336C265.392 36.336 266.896 35.152 268.304 32.784L273.824 16.56C274.464 14.736 275.616 13.824 277.28 13.824C278.208 13.824 279.024 14.144 279.728 14.784C280.432 15.392 280.784 16.176 280.784 17.136C280.784 17.52 280.72 17.904 280.592 18.288L273.824 37.824C278.112 35.648 281.024 32.416 282.56 28.128C283.2 26.336 284.32 25.44 285.92 25.44C286.656 25.44 287.28 25.68 287.792 26.16C288.336 26.608 288.608 27.232 288.608 28.032C288.608 28.416 288.544 28.784 288.416 29.136C287.616 31.536 286.592 33.664 285.344 35.52C284.096 37.376 282.672 38.912 281.072 40.128C279.472 41.344 277.904 42.32 276.368 43.056C274.832 43.824 273.104 44.512 271.184 45.12C270.224 47.744 269.504 49.776 269.024 51.216C268.064 53.904 266.576 55.92 264.56 57.264C262.544 58.64 260.288 59.328 257.792 59.328C255.36 59.328 253.248 58.608 251.456 57.168C249.664 55.728 248.768 53.872 248.768 51.6C248.768 50.192 249.088 48.928 249.728 47.808C250.368 46.688 251.28 45.76 252.464 45.024C253.616 44.288 254.816 43.68 256.064 43.2C257.344 42.752 258.8 42.352 260.432 42C258.832 41.68 257.52 40.96 256.496 39.84C255.504 38.72 255.008 37.36 255.008 35.76C255.008 34.832 255.168 33.936 255.488 33.072L261.296 16.56C261.936 14.736 263.088 13.824 264.752 13.824C265.68 13.824 266.496 14.144 267.2 14.784C267.904 15.392 268.256 16.176 268.256 17.136C268.256 17.584 268.16 18.08 267.968 18.624L262.64 33.744ZM262.4 47.328C258.848 48.256 256.8 49.392 256.256 50.736C256.128 51.024 256.064 51.36 256.064 51.744C256.064 52.768 256.592 53.28 257.648 53.28C258.416 53.28 259.12 53.04 259.76 52.56C260.432 52.112 260.928 51.456 261.248 50.592L262.4 47.328ZM320.169 25.872C320.937 25.872 321.593 26.08 322.137 26.496C322.713 26.912 323.001 27.488 323.001 28.224C323.001 28.544 322.921 28.912 322.761 29.328C321.193 33.744 319.225 36.96 316.857 38.976C314.521 40.992 312.009 42 309.321 42C307.177 42 305.385 41.408 303.945 40.224C302.537 39.008 301.833 37.344 301.833 35.232C301.833 34.304 302.041 33.248 302.457 32.064L305.625 22.944C306.329 20.928 306.297 19.92 305.529 19.92C304.889 19.92 304.057 20.928 303.033 22.944L296.409 36.288C295.545 38.016 294.281 39.408 292.617 40.464C290.985 41.488 289.225 42 287.337 42C284.329 42 282.377 40.8 281.481 38.4C280.617 35.968 280.905 32.768 282.345 28.8C282.921 27.232 283.977 26.448 285.513 26.448C286.281 26.448 286.937 26.656 287.481 27.072C288.057 27.488 288.345 28.064 288.345 28.8C288.345 29.12 288.265 29.488 288.105 29.904C287.561 31.376 287.193 32.608 287.001 33.6C286.841 34.56 286.841 35.248 287.001 35.664C287.161 36.08 287.465 36.288 287.913 36.288C288.585 36.288 289.177 35.76 289.689 34.704L296.985 20.64C299.353 16.096 302.601 13.824 306.729 13.824C308.649 13.824 310.201 14.448 311.385 15.696C312.601 16.912 313.209 18.576 313.209 20.688C313.209 21.616 313.081 22.448 312.825 23.184L309.081 33.84C308.857 34.448 308.745 34.88 308.745 35.136C308.745 35.488 308.857 35.776 309.081 36C309.305 36.192 309.593 36.288 309.945 36.288C311.161 36.288 312.377 35.632 313.593 34.32C314.841 32.976 315.961 30.928 316.953 28.176C317.177 27.44 317.593 26.88 318.201 26.496C318.809 26.08 319.465 25.872 320.169 25.872ZM353.466 25.92C354.234 25.92 354.906 26.144 355.482 26.592C356.058 27.04 356.346 27.616 356.346 28.32C356.346 28.608 356.298 28.896 356.202 29.184C354.602 33.92 352.858 37.248 350.97 39.168C349.082 41.056 346.89 42 344.394 42C342.218 42 340.394 41.44 338.922 40.32C337.45 39.2 336.714 37.856 336.714 36.288C336.714 34.784 336.97 33.296 337.482 31.824L338.97 27.6L340.218 24.096C340.506 23.36 340.65 22.608 340.65 21.84C340.65 20.304 339.866 19.536 338.298 19.536C337.242 19.536 336.33 19.872 335.562 20.544C334.826 21.216 334.218 22.416 333.738 24.144C333.418 25.264 333.258 25.936 333.258 26.16V26.4H333.834C335.594 26.4 336.746 27.152 337.29 28.656C337.77 29.968 337.594 31.152 336.762 32.208C335.802 33.392 334.362 33.744 332.442 33.264H332.394H332.346C331.994 33.264 331.578 33.92 331.098 35.232C330.202 37.856 329.146 39.648 327.93 40.608C326.714 41.536 325.098 42 323.082 42C319.978 42 317.85 40.8 316.698 38.4C315.546 35.968 315.658 32.768 317.034 28.8C317.61 27.232 318.666 26.448 320.202 26.448C320.97 26.448 321.626 26.656 322.17 27.072C322.746 27.488 323.034 28.064 323.034 28.8C323.034 29.12 322.954 29.488 322.794 29.904C322.25 31.344 321.93 32.56 321.834 33.552C321.738 34.544 321.802 35.248 322.026 35.664C322.282 36.08 322.634 36.288 323.082 36.288C323.242 36.288 323.37 36.272 323.466 36.24C323.594 36.176 323.706 36.096 323.802 36C323.93 35.872 324.026 35.76 324.09 35.664C324.186 35.536 324.282 35.36 324.378 35.136C324.474 34.912 324.538 34.72 324.57 34.56C324.634 34.4 324.73 34.16 324.858 33.84C324.986 33.52 325.082 33.264 325.146 33.072C325.818 31.312 326.618 29.952 327.546 28.992C327.194 28.032 327.018 27.04 327.018 26.016C327.018 24.928 327.306 23.488 327.882 21.696C328.426 20 329.082 18.608 329.85 17.52C330.65 16.4 331.546 15.6 332.538 15.12C333.53 14.608 334.442 14.272 335.274 14.112C336.138 13.92 337.114 13.824 338.202 13.824C340.762 13.824 342.938 14.56 344.73 16.032C346.522 17.504 347.418 19.456 347.418 21.888C347.418 23.04 347.21 24.192 346.794 25.344L345.45 28.992L343.818 33.888C343.722 34.176 343.674 34.432 343.674 34.656C343.674 35.744 344.122 36.288 345.018 36.288C345.946 36.288 346.762 35.728 347.466 34.608C348.202 33.456 349.146 31.28 350.298 28.08C350.842 26.64 351.898 25.92 353.466 25.92Z" fill="white"></path> </svg> 